<svg xmlns="http://www.w3.org/2000/svg" width="520" height="360" viewBox="0 0 520 360">
  <rect width="520" height="360" fill="#0a0a0a" rx="12"/>
  <text x="260" y="60" text-anchor="middle" fill="#fff" font-family="Georgia" font-size="32" font-weight="bold">♞ Knight Chess</text>
  <text x="260" y="95" text-anchor="middle" fill="#888" font-family="Arial" font-size="16">5 Knights. Infinite Strategy.</text>
  <!-- Chess board 8x9 mini -->
  <g transform="translate(130, 120)">
    <rect x="0" y="0" width="32" height="24" fill="#f0d9b5"/>
    <rect x="32" y="0" width="32" height="24" fill="#b58863"/>
    <rect x="64" y="0" width="32" height="24" fill="#f0d9b5"/>
    <rect x="96" y="0" width="32" height="24" fill="#b58863"/>
    <rect x="128" y="0" width="32" height="24" fill="#f0d9b5"/>
    <rect x="160" y="0" width="32" height="24" fill="#b58863"/>
    <rect x="192" y="0" width="32" height="24" fill="#f0d9b5"/>
    <rect x="224" y="0" width="32" height="24" fill="#b58863"/>
    <rect x="0" y="24" width="32" height="24" fill="#b58863"/>
    <rect x="32" y="24" width="32" height="24" fill="#f0d9b5"/>
    <rect x="64" y="24" width="32" height="24" fill="#b58863"/>
    <rect x="96" y="24" width="32" height="24" fill="#f0d9b5"/>
    <rect x="128" y="24" width="32" height="24" fill="#b58863"/>
    <rect x="160" y="24" width="32" height="24" fill="#f0d9b5"/>
    <rect x="192" y="24" width="32" height="24" fill="#b58863"/>
    <rect x="224" y="24" width="32" height="24" fill="#f0d9b5"/>
    <rect x="0" y="48" width="32" height="24" fill="#f0d9b5"/>
    <rect x="32" y="48" width="32" height="24" fill="#b58863"/>
    <rect x="64" y="48" width="32" height="24" fill="#f0d9b5"/>
    <rect x="96" y="48" width="32" height="24" fill="#b58863"/>
    <rect x="128" y="48" width="32" height="24" fill="#f0d9b5"/>
    <rect x="160" y="48" width="32" height="24" fill="#b58863"/>
    <rect x="192" y="48" width="32" height="24" fill="#f0d9b5"/>
    <rect x="224" y="48" width="32" height="24" fill="#b58863"/>
    <rect x="0" y="72" width="32" height="24" fill="#b58863"/>
    <rect x="32" y="72" width="32" height="24" fill="#f0d9b5"/>
    <rect x="64" y="72" width="32" height="24" fill="#b58863"/>
    <rect x="96" y="72" width="32" height="24" fill="#f0d9b5"/>
    <rect x="128" y="72" width="32" height="24" fill="#b58863"/>
    <rect x="160" y="72" width="32" height="24" fill="#f0d9b5"/>
    <rect x="192" y="72" width="32" height="24" fill="#b58863"/>
    <rect x="224" y="72" width="32" height="24" fill="#f0d9b5"/>
    <rect x="0" y="96" width="32" height="24" fill="#f0d9b5"/>
    <rect x="32" y="96" width="32" height="24" fill="#b58863"/>
    <rect x="64" y="96" width="32" height="24" fill="#f0d9b5"/>
    <rect x="96" y="96" width="32" height="24" fill="#b58863"/>
    <rect x="128" y="96" width="32" height="24" fill="#f0d9b5"/>
    <rect x="160" y="96" width="32" height="24" fill="#b58863"/>
    <rect x="192" y="96" width="32" height="24" fill="#f0d9b5"/>
    <rect x="224" y="96" width="32" height="24" fill="#b58863"/>
    <rect x="0" y="120" width="32" height="24" fill="#b58863"/>
    <rect x="32" y="120" width="32" height="24" fill="#f0d9b5"/>
    <rect x="64" y="120" width="32" height="24" fill="#b58863"/>
    <rect x="96" y="120" width="32" height="24" fill="#f0d9b5"/>
    <rect x="128" y="120" width="32" height="24" fill="#b58863"/>
    <rect x="160" y="120" width="32" height="24" fill="#f0d9b5"/>
    <rect x="192" y="120" width="32" height="24" fill="#b58863"/>
    <rect x="224" y="120" width="32" height="24" fill="#f0d9b5"/>
    <rect x="0" y="144" width="32" height="24" fill="#f0d9b5"/>
    <rect x="32" y="144" width="32" height="24" fill="#b58863"/>
    <rect x="64" y="144" width="32" height="24" fill="#f0d9b5"/>
    <rect x="96" y="144" width="32" height="24" fill="#b58863"/>
    <rect x="128" y="144" width="32" height="24" fill="#f0d9b5"/>
    <rect x="160" y="144" width="32" height="24" fill="#b58863"/>
    <rect x="192" y="144" width="32" height="24" fill="#f0d9b5"/>
    <rect x="224" y="144" width="32" height="24" fill="#b58863"/>
    <rect x="0" y="168" width="32" height="24" fill="#b58863"/>
    <rect x="32" y="168" width="32" height="24" fill="#f0d9b5"/>
    <rect x="64" y="168" width="32" height="24" fill="#b58863"/>
    <rect x="96" y="168" width="32" height="24" fill="#f0d9b5"/>
    <rect x="128" y="168" width="32" height="24" fill="#b58863"/>
    <rect x="160" y="168" width="32" height="24" fill="#f0d9b5"/>
    <rect x="192" y="168" width="32" height="24" fill="#b58863"/>
    <rect x="224" y="168" width="32" height="24" fill="#f0d9b5"/>
    <rect x="0" y="192" width="32" height="24" fill="#f0d9b5"/>
    <rect x="32" y="192" width="32" height="24" fill="#b58863"/>
    <rect x="64" y="192" width="32" height="24" fill="#f0d9b5"/>
    <rect x="96" y="192" width="32" height="24" fill="#b58863"/>
    <rect x="128" y="192" width="32" height="24" fill="#f0d9b5"/>
    <rect x="160" y="192" width="32" height="24" fill="#b58863"/>
    <rect x="192" y="192" width="32" height="24" fill="#f0d9b5"/>
    <rect x="224" y="192" width="32" height="24" fill="#b58863"/>
    <text x="48" y="18" text-anchor="middle" fill="#333" font-size="18">♞</text>
    <text x="112" y="18" text-anchor="middle" fill="#333" font-size="18">♞</text>
    <text x="144" y="18" text-anchor="middle" fill="#333" font-size="18">♞</text>
    <text x="208" y="18" text-anchor="middle" fill="#333" font-size="18">♞</text>
    <text x="80" y="18" text-anchor="middle" fill="#333" font-size="18">♞</text>
    <text x="48" y="210" text-anchor="middle" fill="#fff" font-size="18">♞</text>
    <text x="112" y="210" text-anchor="middle" fill="#fff" font-size="18">♞</text>
    <text x="144" y="210" text-anchor="middle" fill="#fff" font-size="18">♞</text>
    <text x="208" y="210" text-anchor="middle" fill="#fff" font-size="18">♞</text>
    <text x="80" y="210" text-anchor="middle" fill="#fff" font-size="18">♞</text>
  </g>
  <text x="260" y="350" text-anchor="middle" fill="#555" font-family="Arial" font-size="11">Minimax AI · 8×9 Board · 3 Difficulty Levels</text>
</svg>