<svg xmlns="http://www.w3.org/2000/svg" width="520" height="360" viewBox="0 0 520 360">
  <rect width="520" height="360" fill="#0f172a" rx="12"/>
  <text x="260" y="38" text-anchor="middle" fill="#4fc3f7" font-family="Georgia" font-size="24" font-weight="bold">LeCun 1989 CNN</text>
  <text x="260" y="60" text-anchor="middle" fill="#94a3b8" font-family="Arial" font-size="12">Reproduction &#183; Handwritten Digit Recognition</text>

  <!-- Input 16x16 grid -->
  <rect x="30" y="90" width="80" height="80" rx="4" fill="#1e293b" stroke="#4fc3f7" stroke-width="1.5"/>
  <text x="70" y="185" text-anchor="middle" fill="#64748b" font-family="Arial" font-size="9">16&#215;16 Input</text>
  <!-- Grid lines -->
  <line x1="50" y1="90" x2="50" y2="170" stroke="#4fc3f7" stroke-width="0.3" opacity="0.3"/>
  <line x1="70" y1="90" x2="70" y2="170" stroke="#4fc3f7" stroke-width="0.3" opacity="0.3"/>
  <line x1="90" y1="90" x2="90" y2="170" stroke="#4fc3f7" stroke-width="0.3" opacity="0.3"/>
  <line x1="30" y1="110" x2="110" y2="110" stroke="#4fc3f7" stroke-width="0.3" opacity="0.3"/>
  <line x1="30" y1="130" x2="110" y2="130" stroke="#4fc3f7" stroke-width="0.3" opacity="0.3"/>
  <line x1="30" y1="150" x2="110" y2="150" stroke="#4fc3f7" stroke-width="0.3" opacity="0.3"/>
  <!-- Digit "5" hint -->
  <rect x="50" y="100" width="30" height="8" rx="1" fill="#4fc3f7" opacity="0.5"/>
  <rect x="42" y="108" width="12" height="8" rx="1" fill="#4fc3f7" opacity="0.4"/>
  <rect x="48" y="116" width="28" height="8" rx="1" fill="#4fc3f7" opacity="0.5"/>
  <rect x="75" y="124" width="12" height="8" rx="1" fill="#4fc3f7" opacity="0.4"/>
  <rect x="45" y="132" width="32" height="8" rx="1" fill="#4fc3f7" opacity="0.5"/>

  <!-- H1: 12 feature maps -->
  <g transform="translate(145, 85)">
    <rect x="0" y="0" width="22" height="22" rx="2" fill="#1e293b" stroke="#f59e0b" stroke-width="1"/>
    <rect x="26" y="0" width="22" height="22" rx="2" fill="#1e293b" stroke="#f59e0b" stroke-width="1"/>
    <rect x="52" y="0" width="22" height="22" rx="2" fill="#1e293b" stroke="#f59e0b" stroke-width="1"/>
    <rect x="0" y="26" width="22" height="22" rx="2" fill="#1e293b" stroke="#f59e0b" stroke-width="1"/>
    <rect x="26" y="26" width="22" height="22" rx="2" fill="#1e293b" stroke="#f59e0b" stroke-width="1"/>
    <rect x="52" y="26" width="22" height="22" rx="2" fill="#1e293b" stroke="#f59e0b" stroke-width="1"/>
    <rect x="0" y="52" width="22" height="22" rx="2" fill="#1e293b" stroke="#f59e0b" stroke-width="1"/>
    <rect x="26" y="52" width="22" height="22" rx="2" fill="#1e293b" stroke="#f59e0b" stroke-width="1"/>
    <rect x="52" y="52" width="22" height="22" rx="2" fill="#1e293b" stroke="#f59e0b" stroke-width="1"/>
    <rect x="0" y="78" width="22" height="22" rx="2" fill="#1e293b" stroke="#f59e0b" stroke-width="1"/>
    <rect x="26" y="78" width="22" height="22" rx="2" fill="#1e293b" stroke="#f59e0b" stroke-width="1"/>
    <rect x="52" y="78" width="22" height="22" rx="2" fill="#1e293b" stroke="#f59e0b" stroke-width="1"/>
  </g>
  <text x="182" y="195" text-anchor="middle" fill="#f59e0b" font-family="Arial" font-size="9" font-weight="bold">H1: 12 maps</text>
  <text x="182" y="206" text-anchor="middle" fill="#64748b" font-family="Arial" font-size="8">5&#215;5 conv, stride 2</text>

  <!-- Arrows -->
  <line x1="112" y1="130" x2="142" y2="130" stroke="#4fc3f7" stroke-width="1.2" opacity="0.6" marker-end="url(#arrow)"/>
  <defs><marker id="arrow" markerWidth="6" markerHeight="4" refX="6" refY="2" orient="auto"><path d="M0,0 L6,2 L0,4" fill="#94a3b8"/></marker></defs>

  <!-- H2: 12 feature maps -->
  <g transform="translate(240, 100)">
    <rect x="0" y="0" width="18" height="18" rx="2" fill="#1e293b" stroke="#a78bfa" stroke-width="1"/>
    <rect x="22" y="0" width="18" height="18" rx="2" fill="#1e293b" stroke="#a78bfa" stroke-width="1"/>
    <rect x="44" y="0" width="18" height="18" rx="2" fill="#1e293b" stroke="#a78bfa" stroke-width="1"/>
    <rect x="0" y="22" width="18" height="18" rx="2" fill="#1e293b" stroke="#a78bfa" stroke-width="1"/>
    <rect x="22" y="22" width="18" height="18" rx="2" fill="#1e293b" stroke="#a78bfa" stroke-width="1"/>
    <rect x="44" y="22" width="18" height="18" rx="2" fill="#1e293b" stroke="#a78bfa" stroke-width="1"/>
    <rect x="0" y="44" width="18" height="18" rx="2" fill="#1e293b" stroke="#a78bfa" stroke-width="1"/>
    <rect x="22" y="44" width="18" height="18" rx="2" fill="#1e293b" stroke="#a78bfa" stroke-width="1"/>
    <rect x="44" y="44" width="18" height="18" rx="2" fill="#1e293b" stroke="#a78bfa" stroke-width="1"/>
    <rect x="0" y="66" width="18" height="18" rx="2" fill="#1e293b" stroke="#a78bfa" stroke-width="1"/>
    <rect x="22" y="66" width="18" height="18" rx="2" fill="#1e293b" stroke="#a78bfa" stroke-width="1"/>
    <rect x="44" y="66" width="18" height="18" rx="2" fill="#1e293b" stroke="#a78bfa" stroke-width="1"/>
  </g>
  <text x="271" y="195" text-anchor="middle" fill="#a78bfa" font-family="Arial" font-size="9" font-weight="bold">H2: 12 maps</text>
  <text x="271" y="206" text-anchor="middle" fill="#64748b" font-family="Arial" font-size="8">sparse connectivity</text>

  <line x1="220" y1="130" x2="237" y2="130" stroke="#f59e0b" stroke-width="1.2" opacity="0.6" marker-end="url(#arrow)"/>

  <!-- H3: 30 units -->
  <g transform="translate(330, 95)">
    <rect x="0" y="0" width="40" height="80" rx="4" fill="#1e293b" stroke="#34d399" stroke-width="1.5"/>
    <line x1="8" y1="12" x2="32" y2="12" stroke="#34d399" stroke-width="0.6" opacity="0.5"/>
    <line x1="8" y1="20" x2="32" y2="20" stroke="#34d399" stroke-width="0.6" opacity="0.5"/>
    <line x1="8" y1="28" x2="32" y2="28" stroke="#34d399" stroke-width="0.6" opacity="0.5"/>
    <line x1="8" y1="36" x2="32" y2="36" stroke="#34d399" stroke-width="0.6" opacity="0.5"/>
    <line x1="8" y1="44" x2="32" y2="44" stroke="#34d399" stroke-width="0.6" opacity="0.5"/>
    <line x1="8" y1="52" x2="32" y2="52" stroke="#34d399" stroke-width="0.6" opacity="0.5"/>
    <line x1="8" y1="60" x2="32" y2="60" stroke="#34d399" stroke-width="0.6" opacity="0.5"/>
    <line x1="8" y1="68" x2="32" y2="68" stroke="#34d399" stroke-width="0.6" opacity="0.5"/>
  </g>
  <text x="350" y="195" text-anchor="middle" fill="#34d399" font-family="Arial" font-size="9" font-weight="bold">H3: 30 units</text>
  <text x="350" y="206" text-anchor="middle" fill="#64748b" font-family="Arial" font-size="8">fully connected</text>

  <line x1="305" y1="135" x2="327" y2="135" stroke="#a78bfa" stroke-width="1.2" opacity="0.6" marker-end="url(#arrow)"/>

  <!-- Output: 10 digits -->
  <g transform="translate(405, 88)">
    <circle cx="15" cy="12" r="9" fill="#1e293b" stroke="#f43f5e" stroke-width="1.5"/>
    <circle cx="40" cy="12" r="9" fill="#1e293b" stroke="#f43f5e" stroke-width="1.5"/>
    <circle cx="65" cy="12" r="9" fill="#1e293b" stroke="#f43f5e" stroke-width="1.5"/>
    <circle cx="90" cy="12" r="9" fill="#1e293b" stroke="#f43f5e" stroke-width="1.5"/>
    <circle cx="15" cy="37" r="9" fill="#1e293b" stroke="#f43f5e" stroke-width="1.5"/>
    <circle cx="40" cy="37" r="9" fill="#1e293b" stroke="#f43f5e" stroke-width="1.5"/>
    <circle cx="65" cy="37" r="9" fill="#1e293b" stroke="#f43f5e" stroke-width="1.5"/>
    <circle cx="90" cy="37" r="9" fill="#1e293b" stroke="#f43f5e" stroke-width="1.5"/>
    <circle cx="27" cy="62" r="9" fill="#1e293b" stroke="#f43f5e" stroke-width="1.5"/>
    <circle cx="52" cy="62" r="9" fill="#1e293b" stroke="#f43f5e" stroke-width="1.5"/>
    <text x="15" y="15" text-anchor="middle" fill="#f43f5e" font-family="monospace" font-size="8">0</text>
    <text x="40" y="15" text-anchor="middle" fill="#f43f5e" font-family="monospace" font-size="8">1</text>
    <text x="65" y="15" text-anchor="middle" fill="#f43f5e" font-family="monospace" font-size="8">2</text>
    <text x="90" y="15" text-anchor="middle" fill="#f43f5e" font-family="monospace" font-size="8">3</text>
    <text x="15" y="40" text-anchor="middle" fill="#f43f5e" font-family="monospace" font-size="8">4</text>
    <text x="40" y="40" text-anchor="middle" fill="#f43f5e" font-family="monospace" font-size="8">5</text>
    <text x="65" y="40" text-anchor="middle" fill="#f43f5e" font-family="monospace" font-size="8">6</text>
    <text x="90" y="40" text-anchor="middle" fill="#f43f5e" font-family="monospace" font-size="8">7</text>
    <text x="27" y="65" text-anchor="middle" fill="#f43f5e" font-family="monospace" font-size="8">8</text>
    <text x="52" y="65" text-anchor="middle" fill="#f43f5e" font-family="monospace" font-size="8">9</text>
  </g>
  <text x="450" y="195" text-anchor="middle" fill="#f43f5e" font-family="Arial" font-size="9" font-weight="bold">Output: 10 digits</text>

  <line x1="372" y1="135" x2="400" y2="135" stroke="#34d399" stroke-width="1.2" opacity="0.6" marker-end="url(#arrow)"/>

  <!-- Bottom info -->
  <rect x="30" y="225" width="460" height="50" rx="8" fill="#1e293b" stroke="#374151" stroke-width="1"/>
  <text x="260" y="245" text-anchor="middle" fill="#4fc3f7" font-family="monospace" font-size="11" font-weight="bold">9,760 Parameters &#183; 4.19% Test Error &#183; 23 Epochs</text>
  <text x="260" y="263" text-anchor="middle" fill="#64748b" font-family="Arial" font-size="10">Faithful reproduction of LeCun et al. 1989 &#183; Pure Node.js &#183; Zero Dependencies</text>

  <!-- Canvas drawing hint -->
  <rect x="120" y="290" width="280" height="28" rx="6" fill="#1e293b" stroke="#4fc3f7" stroke-width="1"/>
  <text x="260" y="309" text-anchor="middle" fill="#4fc3f7" font-family="monospace" font-size="11">Draw &#8594; Predict &#183; Browser Inference &#183; MNIST</text>

  <text x="260" y="350" text-anchor="middle" fill="#475569" font-family="Arial" font-size="10">Interactive Demo &#183; Real-time Digit Recognition &#183; Filter Visualization</text>
</svg>