<?xml version="1.0" encoding="UTF-8" standalone="no"?>
<svg id="svg2" height="314.59723" viewBox="0 0 313.99999 314.59721" width="314" xmlns="http://www.w3.org/2000/svg">
   <path id="path4200" d="m-140.94562 680.11562c.35449.0191.70951.0335 1.06816.0431 13.17773.21336 24.19512-11.50952 16.89934-25.67054-.79887 10.96415-6.05933 16.88848-17.19279 16.88848-.26311 0-.51958-.004-.77471-.0144-.25354.005-.51073.0144-.77466.0144-11.13144 0-16.39396-5.92433-17.19278-16.88848-7.29574 14.16102 3.72094 25.88404 16.89867 25.67054.35879-.005.71534-.0239 1.06877-.0431zm0-17.43088c.27891.0239.56346.0383.85757.0383 9.78219.23537 11.85588-8.85028 9.4366-14.33386-1.55268 5.48239-6.07636 8.26903-10.29417 7.39414-4.21651.87489-8.74144-1.91175-10.29282-7.39414-2.41928 5.48358-.34588 14.56947 9.43535 14.33386.29326 0 .58039-.0144.85747-.0383zm0-27.11772c1.07601-.0383 2.09785-.0431 3.05388-.004 30.79369 1.23904 70.029598 10.93191 86.211538 5.1786 11.116473-3.95152 29.063684-16.30187 37.439346-5.4465 2.53601 3.28718-7.668119 11.46589-7.876842 1.79158-4.131021-7.79183-12.961205 3.85346-6.547099 10.0355-23.368842 21.19703-86.904783-2.97025-92.975213-4.54115-1.73589-.44969-2.69713 1.24564-1.32381 3.49528 2.21463 3.62919 9.01537 8.92802 10.66588 14.51326 3.32574 11.25358-6.55303 29.30159-26.23748 29.80328-.82226.0191-1.62309.005-2.4102-.0287-.78571.0335-1.58783.0478-2.4089.0287-19.68636-.50169-29.56446-18.5497-26.23934-29.80328 1.65108-5.58524 8.45125-10.88407 10.66578-14.51326 1.37533-2.24964.41428-3.94497-1.32305-3.49528-6.07047 1.5709-69.60704 25.73818-92.9753 4.54115 6.4141-6.18204-2.41599-17.82733-6.54581-10.0355-.21049 9.67431-10.41415 1.4956-7.87809-1.79158 8.37567-10.85537 26.32417 1.49498 37.44126 5.4465 16.17941 5.75331 55.41727-3.93956 86.21164-5.1786.95535-.0431 1.97782-.0335 3.05181.004zm0-33.4696c-1.72676-.22723-3.69673.44922-3.83049 1.99012-1.99079 15.36422-.21289 13.10439-6.00384 19.54954-8.21463 9.14148-16.257 8.33959-29.17979 8.9992-12.21328.62191-21.91921 1.37596-23.99549-3.44984-1.0982-2.54926 5.73388-21.62399 24.6352-25.13296 6.7154-1.24626 19.12626 1.82206 19.11841-1.83765-.0144-6.22447-18.62542-4.36836-24.4833-2.98518-20.48849 4.83953-37.78303 12.5052-53.7263 33.69205 30.15466 14.37753 62.55519.27077 96.65769-1.35443.26838.0239.53796.0478.80791.0761.26982-.0239.54126-.0536.80796-.0761 34.10256 1.62529 66.503081 15.73196 96.657023 1.35443-15.941356-21.18685-33.2358-28.85252-53.726293-33.69205-5.85788-1.38318-24.4703-3.23929-24.48331 2.98518-.005 3.65971 12.40374.59139 19.12105 1.83765 18.898685 3.50897 25.730763 22.5837 24.634621 25.13296-2.075701 4.8258-11.784215 4.07175-23.996881 3.44984-12.92274-.65961-20.96577.14209-29.18041-8.9992-5.79128-6.44515-4.01305-4.18532-6.00393-19.54954-.13299-1.54105-2.10364-2.21735-3.82983-1.99012zm0-91.83534c-.89139-.46787-1.68561-2.11574-1.74694-4.77675-.28991-12.58237-3.86901-25.96542-2.48449-40.62641.56206-5.16841 2.32729-8.05016 4.23143-8.72766 1.90353.67755 3.67072 3.55925 4.23288 8.72766 1.38241 14.66099-2.19569 28.04404-2.48583 40.62641-.0617 2.66101-.85628 4.30912-1.74705 4.77675zm0-130.45785c-20.52565 14.1437-53.05529 17.23412-52.49189 53.69544-.31765 14.45106 7.00042 22.54309 34.46321 22.30088 8.2165-.0727 8.23143 25.75492 7.98955 37.09227-5.14249-8.04839-9.98177-13.52896-19.2449-19.95321-21.14847-16.9423-31.17263-20.538-31.17263-41.24707 0-15.7523 4.24067-20.75926 13.23901-31.31802-31.64074 4.72232-77.17991 29.60594-43.69817 59.65502 14.83211 13.21863 38.61112 2.5397 54.86812 15.02873 9.28337 6.18027 26.87518 24.81608 26.87518 37.6197l.4607 7.54125-1.43069 33.82058c-.14591 1.97998-2.88887 1.58468-2.92987-.19853 0-36.53427-21.24104-62.43032-58.3713-62.43032-13.71769 0-21.60161 2.61561-36.05488 2.09-13.65119.15787-29.73276-9.8262-30.2688-20.38017-15.18554 13.37951-12.92667 45.9491 15.00036 43.26411 17.95443-3.4749 19.94665-19.37134 45.77979-19.37134 16.24069-.0933 29.43148.26456 42.23228 12.51956 5.60294 5.367 10.41084 10.43677 13.54556 28.9781.28991 4.25291-1.61922 4.06634-2.73364 1.75087-9.58661-19.92446-19.55145-24.77235-37.21564-25.45708-28.40575-.15787-52.87074 38.09207-73.50336 38.09207-9.42162 0-14.87847-3.41391-20.33722-10.20112.48987 15.85754 2.86859 30.60818 21.51292 30.75768 11.43465.15787 20.7272-12.73722 26.90263-22.01566 10.71931-16.10693 31.21177-34.91735 53.64148-30.65425 19.68062 4.73609 31.08786 23.71276 31.08786 51.7203 0 5.59241-2.4754 15.44789-9.82653 15.44789-7.02975 0-9.55663-1.55119-9.55663-7.85039 0-11.59448 4.38993-39.02077-9.99287-39.02077-7.84153-.27794-11.26841 3.94077-11.54425 9.43334.0239 6.07675 13.15424 11.20933 10.7748 1.73236-.73562-2.92418 4.44796-4.10404 4.74533.31335-.25833 9.51285-9.36617 8.40417-8.42388 28.90333 0 15.75889 13.64004 12.5028 31.47976 12.59791 14.64429 1.60855 9.45157 15.99446-.82236 16.0423-5.07594.18657-6.72123-2.62217-10.09458-3.05631-2.81902-.35593-5.59375.37123-6.22566 2.2305-1.57152 7.77748 10.56804 9.94039 20.19111 9.94039 6.85954.32723-2.64877 5.35146-7.36285 5.48541-3.25858.0914-3.11836 3.12869-.16648 3.19504 16.76036-.43055 17.89698-10.97075 21.18162-25.14851.29996-3.6699 2.84711-5.26654 7.49796-5.48182 4.65079.21528 7.1979 1.81192 7.49723 5.48182 3.28666 14.17776 4.42194 24.71796 21.18173 25.14851 2.95207-.0665 3.09487-3.10358-.16457-3.19504-4.71543-.13395-14.22445-5.15828-7.36424-5.48541 9.62312 0 21.764022-2.16296 20.191161-9.94039-.632631-1.85918-3.405351-2.58633-6.225711-2.2305-3.37397.43438-5.01725 3.24288-10.09458 3.05631-10.27393-.0478-15.46464-14.43375-.82293-16.0423 17.83957-.0952 31.481673 3.16098 31.481673-12.59791.942913-20.49916-8.166317-19.39048-8.425272-28.90333.297561-4.41739 5.48033-3.23753 4.746762-.31335-2.378906 9.47697 10.747344 4.34439 10.774756-1.73236-.276989-5.49257-3.70396-9.71138-11.543678-9.43334-14.384711 0-9.994736 27.42629-9.994736 39.02077 0 6.2992-2.526925 7.85039-9.556675 7.85039-7.34984 0-9.82653-9.85548-9.82653-15.44789 0-28.00754 11.40853-46.98421 31.087863-51.7203 22.429134-4.2631 42.923503 14.54732 53.6409 30.65425 6.176057 9.27844 15.46856 22.17353 26.903164 22.01566 18.643752-.14926 21.022658-14.90018 21.514303-30.75768-5.4580847 6.78721-10.9149256 10.20112-20.3365944 10.20112-20.6351596 0-45.0976096-38.24994-73.5033116-38.09207-17.66625.68473-27.629704 5.53262-37.217654 25.45708-1.11442 2.31547-3.02441 2.50204-2.7323-1.75087 3.13338-18.54133 7.94133-23.6111 13.54618-28.9781 12.800853-12.25524 25.989677-12.61284 42.232278-12.51956 25.830606 0 27.823449 15.89644 45.779798 19.37134 27.9251076 2.68499 30.183937-29.8846 15.0004039-43.26411-.5360875 10.55397-16.6202439 20.53804-30.2694739 20.38017-14.454558.52561-22.336566-2.09-36.056168-2.09-37.130928 0-58.371918 25.89605-58.371918 62.43032-.0383 1.78326-2.78191 2.17851-2.92796.19853l-1.43274-33.82058.46213-7.54125c0-12.80362 17.59186-31.43943 26.87326-37.6197 16.259631-12.48903 40.036686-1.8101 54.870801-15.02873 33.479685-30.04908-12.059434-54.9327-43.700222-59.65502 8.998386 10.55876 13.240969 15.56572 13.240969 31.31802 0 20.70902-10.02674 24.30477-31.175168 41.24707-9.26055 6.42425-14.10179 11.90482-19.24232 19.95321-.24446-11.33735-.22963-37.16518 7.98697-37.09227 27.464702.24206 34.783306-7.84982 34.465079-22.30088.562112-36.46132-31.967479-39.55174-52.493189-53.69544zm-12.24452 22.88036c-7.4327 1.892-11.31797 12.90824-10.72524 24.36873 0 6.0666 5.58467 14.11681 9.51816 16.62713-2.68604-6.6377-6.6932-22.3822 1.20708-40.99586zm8.11671 155.10108c0-3.57661-4.01109-4.08308-4.16107 1.29525.55824 16.361-7.60812 15.74034-8.10369 22.06527 0 4.67448.99247 7.99218 7.54938 7.35826 5.80047 0 4.79886-10.07257 4.79886-14.73389zm-69.44596-84.22716c-4.76686 7.1227-19.92116 13.45184-29.64407 13.45184-35.44125 0-34.05816-35.18822-6.70426-51.78129-.71338 23.97171 12.52697 38.26309 36.34833 38.32945zm-38.27271 46.96927c-4.30521 15.63031-11.35897 25.38714-25.85859 25.38714-19.3447-1.73719-18.35347-27.36348-14.21135-37.22259 9.69551 16.03216 25.59452 17.08639 40.06994 11.83545zm80.08184 56.05994c3.53437-.31669 4.87837 3.10894 3.55848 5.46861-1.31984 2.35786-4.99447 2.08159-6.58035-.22341-1.211-1.75809-.46595-5.14512 3.02187-5.24496zm-95.51849 19.68704c-8.045 0-17.93028-11.71643-19.05254-19.03766 4.96515 1.99011 11.07275 4.1459 17.17446 3.27642 6.94493-1.26598 7.31995-1.89325 10.97037-6.44994 6.48654 9.41655 4.97625 22.21118-9.09229 22.21118zm13.99094 15.93351c-10.58957 2.97321-18.40178-8.99738-20.3796-12.56204 6.94292 3.92048 20.36133 3.72913 23.08779-3.26144 2.7134 6.66703 4.21067 12.83529-2.70819 15.82348zm3.78414 12.39636c-4.50273-.71161-7.24813-2.59829-8.11149-5.68211 5.52917.80188 11.34596-.70147 13.49399-4.95616 2.86735 4.60215 2.12584 11.82828-5.3825 10.63827zm51.39504-13.29933c-4.78384 4.24751-9.38641 12.2062-13.13142 17.28794-2.42 3.28355-6.20352 2.13602-5.21099.23106 3.01273-5.78559 11.62706-15.62074 18.34241-17.51876zm-3.81351-2.76813c-4.65998 4.3187-10.30718 9.39388-11.50508 10.7029-7.5931 8.28334-11.34729 13.11989-13.48423 8.28697-.43055-.97295 3.75223-6.72262 9.94264-10.88589 4.86536-3.2734 9.03556-6.50433 15.04667-8.10398zm32.63336 76.16562c-7.13538 3.47792-25.27041-.51068-27.94927-8.59912 10.53996-4.73313 15.71574-8.43704 23.62775-14.15743-.29182 10.78055.93506 14.26569 4.32152 22.75655zm-57.84311-22.52276c5.29442-.66798 17.57229.0541 25.36173-2.22213 12.66781-3.70755 19.61594-4.65477 31.44254-9.21324-4.56018 7.84144-17.51426 14.90191-21.74575 17.54087-10.93516 8.61108-32.88437 7.94314-35.05852-6.1055zm99.38022-259.49544c7.43467 1.892 11.32051 12.90824 10.7252 24.36873 0 6.0666-5.584 14.11681-9.51749 16.62713 2.68536-6.6377 6.69516-22.3822-1.20771-40.99586zm-8.11613 155.10108c0-3.57661 4.01114-4.08308 4.16245 1.29525-.55823 16.361 7.60679 15.74034 8.10365 22.06527 0 4.67448-.99439 7.99218-7.55072 7.35826-5.79913 0-4.79881-10.07257-4.79881-14.73389zm69.44735-84.22716c4.765515 7.1227 19.92111 13.45184 29.644023 13.45184 35.4393273 0 34.05878-35.18822 6.704921-51.78129.711467 23.97171-12.52955 38.26309-36.348944 38.32945zm38.271368 46.96927c4.306496 15.63031 11.359018 25.38714 25.859884 25.38714 19.344742-1.73719 18.352219-27.36348 14.209333-37.22259-9.6934917 16.03216-25.593802 17.08639-40.069217 11.83545zm-80.080458 56.05994c-3.53575-.31669-4.87779 3.10894-3.55857 5.46861 1.31984 2.35786 4.99509 2.08159 6.58102-.22341 1.20899-1.75809.46356-5.14512-3.02245-5.24496zm95.519023 19.68704c8.044422 0 17.9303236-11.71643 19.0519167-19.03762-4.96639212 1.99007-11.0739914 4.14586-17.1758017 3.27638-6.944932-1.26598-7.318557-1.89325-10.970994-6.44994-6.484573 9.41655-4.976247 22.21118 9.094879 22.21118zm-13.991569 15.93351c10.588279 2.97321 18.3998671-8.99738 20.3776885-12.56199-6.9430175 3.92043-20.3607055 3.72908-23.0871645-3.26149-2.714117 6.66703-4.209335 12.83529 2.709476 15.82348zm-3.785478 12.39636c4.502829-.71161 7.249524-2.59825 8.112928-5.68211-5.530561.80188-11.346054-.70142-13.496001-4.95616-2.866676 4.60215-2.125262 11.82828 5.383073 10.63827zm-51.393696-13.29933c4.781876 4.24751 9.385072 12.2062 13.130174 17.28794 2.419283 3.28359 6.203421 2.13602 5.210899.23106-3.01139-5.78559-11.627014-15.62074-18.341073-17.51876zm3.813465-2.76813c4.658019 4.31875 10.305309 9.39388 11.505167 10.7029 7.591766 8.28338 11.345958 13.11994 13.482941 8.28697.432467-.97295-3.750939-6.72262-9.941396-10.88584-4.867316-3.2734-9.036849-6.50438-15.046712-8.10403zm-32.635275 76.16562c7.13538 3.47792 25.27108-.51068 27.949317-8.59912-10.538048-4.73313-15.715794-8.43704-23.627127-14.15743.29182 10.78055-.93382 14.26569-4.32219 22.75655zm57.843109-22.52276c-5.293805-.66798-17.569664.0541-25.361016-2.22213-12.667806-3.70755-19.614747-4.65477-31.443213-9.21324 4.56081 7.84144 17.51484 14.90191 21.747712 17.54087 10.933822 8.61108 32.88308 7.94314 35.056517-6.1055" fill="#fcdd19" fill-rule="evenodd" transform="translate(297.94485285 -377.80422986)"/>
</svg>
